<svg xmlns="http://www.w3.org/2000/svg" width="320" height="220" viewBox="0 0 320 220"><rect width="320" height="220" rx="28" fill="#fbfaf7"/><rect x="18" y="18" width="284" height="184" rx="24" fill="#f7e4e8" stroke="#b85a6a" stroke-width="2"/><path d="M108 58c-29 0-52 24-52 54 0 22 12 43 31 54l39 22V84c0-14 11-26 24-26H108Z" fill="#c55d6d"/><path d="M212 58c29 0 52 24 52 54 0 22-12 43-31 54l-39 22V84c0-14-11-26-24-26h42Z" fill="#c55d6d"/><path d="M150 70c6 7 10 15 10 25v90" stroke="#7b3340" stroke-width="8" stroke-linecap="round"/><path d="M170 70c-6 7-10 15-10 25v90" stroke="#7b3340" stroke-width="8" stroke-linecap="round"/></svg>
