<svg xmlns="http://www.w3.org/2000/svg" viewBox="0 0 320 220" width="320" height="220">
  <defs>
    <linearGradient id="bg" x1="0" y1="0" x2="1" y2="1">
      <stop offset="0%" stop-color="#fff0e4" />
      <stop offset="100%" stop-color="#fce8d4" />
    </linearGradient>
    <linearGradient id="mito" x1="0" y1="0" x2="1" y2="1">
      <stop offset="0%" stop-color="#df8f3a" />
      <stop offset="100%" stop-color="#b86a1e" />
    </linearGradient>
  </defs>
  <rect width="320" height="220" rx="24" fill="url(#bg)" />
  <g transform="translate(160, 110)">
    <ellipse cx="0" cy="0" rx="70" ry="40" fill="url(#mito)" fill-opacity="0.18" stroke="#995214" stroke-width="3" />
    <path d="M-50,-10 C-30,-30 -10,-20 0,-10 C10,0 30,-10 50,10" fill="none" stroke="#995214" stroke-width="5" stroke-linecap="round" />
    <path d="M-45,5 C-25,-15 -5,-5 5,5 C15,15 35,5 55,25" fill="none" stroke="#995214" stroke-width="5" stroke-linecap="round" />
    <path d="M-40,20 C-20,0 0,10 10,20 C20,30 40,20 60,40" fill="none" stroke="#995214" stroke-width="5" stroke-linecap="round" />
    <circle cx="-20" cy="-5" r="8" fill="#995214" fill-opacity="0.3" />
    <circle cx="20" cy="10" r="6" fill="#995214" fill-opacity="0.3" />
  </g>
</svg>
